<svg version="1" xmlns="http://www.w3.org/2000/svg" width="682.667" height="682.667" viewBox="0 0 512.000000 512.000000"><path d="M41 254.8v158.3l79.3-.4c43.5-.2 80.8-.6 82.7-.9 1.9-.3 6-.9 9-1.3 20.5-2.4 45.8-11.5 65.5-23.4 22.2-13.5 42.1-35.3 53.8-59.3 18.1-36.7 21.4-87.9 8.2-127.3-6.9-20.6-18.7-39.8-33.9-55.1-11.3-11.4-20.8-18.7-34.1-26.2C253 108.7 229 100.9 208 98.5c-3-.3-6.8-.9-8.5-1.2-1.6-.3-38-.6-80.7-.7L41 96.4v158.4zm155.5-72.9c26.9 7 43.6 26.6 47.2 55.6 1.4 11 .6 29.9-1.6 37.2-.5 1.8-.8 3.3-.6 3.3.7 0-3.2 10.5-6 16-10.3 20.3-24.8 31.1-47.5 35-6.7 1.2-42.9 1.8-44.6.8-.7-.5-1.2-146.3-.5-149.9 0-.4 10.3-.5 22.9-.4 19 .3 24 .7 30.7 2.4zM407.9 323.5c-19.6 3.2-34.8 16.7-38.8 34.5-1 4.4-.8 19.3.2 23.6 2.2 9.1 10.4 20.1 19.2 25.9 8.9 6 17.9 8 34 7.8 26.5-.3 44.6-14 48-36.4.9-5.7.9-15.9 0-20.1-2.3-10.3-11.3-22.6-21.4-28.9-10-6.4-25.8-8.8-41.2-6.4z"/></svg>