<?xml version="1.0" encoding="UTF-8" standalone="no"?><!DOCTYPE svg PUBLIC "-//W3C//DTD SVG 1.1//EN" "http://www.w3.org/Graphics/SVG/1.1/DTD/svg11.dtd"><svg width="100%" height="100%" viewBox="0 0 70 66" version="1.1" xmlns="http://www.w3.org/2000/svg" xmlns:xlink="http://www.w3.org/1999/xlink" xml:space="preserve" xmlns:serif="http://www.serif.com/" style="fill-rule:evenodd;clip-rule:evenodd;stroke-linejoin:round;stroke-miterlimit:1.41421;"><path d="M45.246,32.551c-0.122,0.242 -0.222,0.661 -0.222,0.932l0,17.043c0,0.271 -0.222,0.494 -0.494,0.494l-18.552,0c-0.271,0 -0.493,-0.222 -0.493,-0.494l0,-25.377c0,-0.271 0.096,-0.692 0.216,-0.936l3.385,-6.975c0.119,-0.243 0.219,-0.43 0.222,-0.415c0.004,0.016 0.025,-0.007 0.048,-0.053c0.023,-0.044 0.263,-0.081 0.534,-0.081l16.194,0c0.272,0 0.58,0.203 0.687,0.454l2.684,6.321c0.106,0.251 0.093,0.653 -0.03,0.893l-4.179,8.194Zm-11.906,-6.084c-0.271,0 -0.577,0.205 -0.682,0.458l-2.159,5.216c-0.104,0.252 0.033,0.456 0.304,0.456l10.143,0c0.272,0 0.597,-0.196 0.723,-0.437l2.759,-5.256c0.125,-0.241 0.007,-0.437 -0.264,-0.437l-10.824,0l0,0Zm6.361,20.417c0.271,0 1.188,-1.29 1.497,-3.028c0.493,-2.774 0.42,-7.927 0.42,-7.937c0,-0.01 -0.221,-0.017 -0.492,-0.017l-11.012,0c-0.272,0 -0.494,0.221 -0.494,0.492l0,9.998c0,0.272 0.222,0.493 0.494,0.493l9.587,0l0,-0.001Zm-7.098,-27.179c-0.272,0 -0.418,0.209 -0.323,0.464l0.92,2.531c0.095,0.257 0.391,0.465 0.663,0.465l11.378,0c0.271,0 0.406,-0.204 0.298,-0.453l-1.096,-2.553c-0.108,-0.249 -0.416,-0.454 -0.688,-0.454l-11.152,0Z" style="fill:#ffffbc;fill-rule:nonzero;"/><path d="M69.586,31.497c0,11.471 -3.791,20.173 -11.372,26.107c-7.088,5.472 -16.944,8.208 -29.569,8.208c-1.055,0 -3.444,-0.099 -7.169,-0.297c-3.725,-0.198 -6.593,-0.297 -8.604,-0.297c-2.703,0 -5.702,0.132 -8.999,0.396c-1.417,0.132 -2.126,-0.445 -2.126,-1.731c0,-0.857 0.709,-1.351 2.126,-1.483c3.231,-0.33 4.846,-2.093 4.846,-5.291l0,-47.368c0,-1.78 -0.363,-2.983 -1.088,-3.61c-0.593,-0.494 -1.895,-0.956 -3.906,-1.384c-1.681,-0.33 -2.703,-0.61 -3.066,-0.841c-0.362,-0.231 -0.577,-0.725 -0.643,-1.483c-0.098,-0.791 0.248,-1.302 1.039,-1.533c0.165,-0.033 0.89,-0.099 2.175,-0.198c7.088,-0.461 16.482,-0.692 28.184,-0.692c11.373,0 20.52,2.736 27.442,8.208c7.153,5.67 10.73,13.433 10.73,23.289Zm-10.334,1.335c0,-19.119 -9.823,-28.679 -29.469,-28.679c-4.615,0 -6.923,0 -6.923,0c-3.626,0.33 -5.439,1.335 -5.439,3.017l0,45.885c0,3.23 0.857,5.389 2.571,6.477c1.714,1.088 5.143,1.632 10.285,1.632c19.317,0 28.975,-9.444 28.975,-28.332Z" style="fill:#ffffbc;fill-rule:nonzero;"/></svg>