<?xml version="1.0" encoding="UTF-8" standalone="no"?><!DOCTYPE svg PUBLIC "-//W3C//DTD SVG 1.1//EN" "http://www.w3.org/Graphics/SVG/1.1/DTD/svg11.dtd"><svg width="100%" height="100%" viewBox="0 0 71 100" version="1.1" xmlns="http://www.w3.org/2000/svg" xmlns:xlink="http://www.w3.org/1999/xlink" xml:space="preserve" xmlns:serif="http://www.serif.com/" style="fill-rule:evenodd;clip-rule:evenodd;stroke-linejoin:round;stroke-miterlimit:1.41421;"><path d="M70.22,79.747c-0.01,10.992 -8.888,19.915 -19.879,19.982c-18.919,0.115 -44.534,0.271 -44.534,0.271c-3.203,0 -5.807,-2.604 -5.807,-5.807l0,-88.386c0,-3.203 2.604,-5.807 5.807,-5.807c0,0 25.668,0.192 44.616,0.333c10.994,0.082 19.86,9.023 19.85,20.018c-0.015,17.262 -0.038,42.136 -0.053,59.396Zm-63.482,13.515c0,0 24.033,0 40.846,0c4.243,0 8.313,-1.686 11.314,-4.686c3,-3.001 4.686,-7.071 4.686,-11.314c0,-15.536 0,-38.988 0,-54.524c0,-4.243 -1.686,-8.313 -4.686,-11.314c-3.001,-3 -7.071,-4.686 -11.314,-4.686c-16.813,0 -40.846,0 -40.846,0l0,86.524Z" style="fill:#ffffbc;fill-rule:nonzero;"/><path d="M46.604,48.408c-0.151,0.299 -0.275,0.817 -0.275,1.152l0,21.064c0,0.335 -0.274,0.61 -0.61,0.61l-22.93,0c-0.335,0 -0.609,-0.274 -0.609,-0.61l0,-31.364c0,-0.335 0.119,-0.856 0.267,-1.157l4.184,-8.621c0.147,-0.3 0.271,-0.531 0.274,-0.513c0.005,0.02 0.031,-0.009 0.06,-0.065c0.028,-0.055 0.324,-0.101 0.659,-0.101l20.015,0c0.336,0 0.717,0.252 0.849,0.562l3.318,7.812c0.131,0.31 0.114,0.807 -0.038,1.104l-5.164,10.127Zm-14.715,-7.519c-0.335,0 -0.714,0.253 -0.843,0.565l-2.669,6.447c-0.128,0.311 0.041,0.564 0.376,0.564l12.536,0c0.336,0 0.738,-0.243 0.893,-0.54l3.41,-6.496c0.155,-0.298 0.009,-0.541 -0.326,-0.541l-13.377,0l0,0.001Zm7.861,25.234c0.335,0 1.469,-1.595 1.85,-3.743c0.61,-3.429 0.52,-9.797 0.52,-9.81c0,-0.012 -0.274,-0.021 -0.609,-0.021l-13.61,0c-0.336,0 -0.61,0.273 -0.61,0.609l0,12.356c0,0.336 0.274,0.61 0.61,0.61l11.849,0l0,-0.001Zm-8.772,-33.592c-0.336,0 -0.517,0.258 -0.4,0.573l1.138,3.129c0.117,0.317 0.483,0.575 0.819,0.575l14.062,0c0.335,0 0.502,-0.253 0.369,-0.561l-1.355,-3.155c-0.133,-0.308 -0.514,-0.561 -0.85,-0.561l-13.783,0Z" style="fill:#ffffbc;fill-rule:nonzero;"/></svg>