<?xml version="1.0" encoding="UTF-8" standalone="no"?><!DOCTYPE svg PUBLIC "-//W3C//DTD SVG 1.1//EN" "http://www.w3.org/Graphics/SVG/1.1/DTD/svg11.dtd"><svg width="100%" height="100%" viewBox="0 0 102 66" version="1.1" xmlns="http://www.w3.org/2000/svg" xmlns:xlink="http://www.w3.org/1999/xlink" xml:space="preserve" xmlns:serif="http://www.serif.com/" style="fill-rule:evenodd;clip-rule:evenodd;stroke-linejoin:round;stroke-miterlimit:1.41421;"><path d="M101.096,31.497c0,11.471 -3.791,20.173 -11.373,26.107c-7.087,5.472 -16.943,8.208 -29.568,8.208c-1.055,0 -3.445,-0.099 -7.169,-0.297c-3.725,-0.198 -6.593,-0.297 -8.604,-0.297c-2.703,0 -5.703,0.132 -8.999,0.396c-1.417,0.132 -2.126,-0.445 -2.126,-1.731c0,-0.857 0.709,-1.351 2.126,-1.483c3.231,-0.33 4.846,-2.093 4.846,-5.291l0,-47.368c0,-1.78 -0.363,-2.983 -1.088,-3.61c-0.593,-0.494 -1.895,-0.956 -3.906,-1.384c-1.681,-0.33 -2.703,-0.61 -3.066,-0.841c-0.362,-0.231 -0.577,-0.725 -0.643,-1.483c-0.099,-0.791 0.248,-1.302 1.039,-1.533c0.165,-0.033 0.89,-0.099 2.175,-0.198c7.087,-0.461 16.482,-0.692 28.184,-0.692c11.373,0 20.52,2.736 27.442,8.208c7.153,5.67 10.73,13.433 10.73,23.289Zm-10.334,1.335c0,-19.119 -9.823,-28.679 -29.47,-28.679c-4.614,0 -6.922,0 -6.922,0c-3.626,0.33 -5.439,1.335 -5.439,3.017l0,45.885c0,3.23 0.857,5.389 2.571,6.477c1.714,1.088 5.143,1.632 10.285,1.632c19.316,0 28.975,-9.444 28.975,-28.332Z" style="fill:#ffffbc;fill-rule:nonzero;"/><path d="M36.864,62.096l-33.546,0c-1.83,0 -3.318,-1.488 -3.318,-3.318l0,-50.504c0,-1.83 1.488,-3.318 3.318,-3.318l33.546,0c1.83,0 3.318,1.488 3.318,3.318l0,50.504c0,1.83 -1.487,3.318 -3.318,3.318Zm-33.014,-3.85l32.482,0l0,-49.44l-32.482,0l0,49.44Z" style="fill:#ffffbc;fill-rule:nonzero;"/><path d="M27.201,32.616c-0.086,0.171 -0.157,0.467 -0.157,0.659l0,12.036c0,0.191 -0.156,0.348 -0.348,0.348l-13.103,0c-0.191,0 -0.348,-0.156 -0.348,-0.348l0,-17.922c0,-0.191 0.068,-0.489 0.153,-0.661l2.391,-4.926c0.084,-0.172 0.154,-0.304 0.156,-0.293c0.003,0.011 0.018,-0.005 0.034,-0.037c0.016,-0.032 0.186,-0.058 0.377,-0.058l11.437,0c0.192,0 0.409,0.144 0.485,0.321l1.896,4.464c0.075,0.177 0.065,0.461 -0.022,0.631l-2.951,5.786Zm-8.408,-4.296c-0.191,0 -0.408,0.144 -0.482,0.323l-1.525,3.684c-0.073,0.177 0.024,0.322 0.215,0.322l7.163,0c0.192,0 0.422,-0.139 0.51,-0.309l1.949,-3.712c0.089,-0.17 0.005,-0.309 -0.186,-0.309l-7.644,0l0,0.001Zm4.492,14.419c0.191,0 0.839,-0.912 1.057,-2.139c0.348,-1.959 0.297,-5.598 0.297,-5.606c0,-0.006 -0.156,-0.012 -0.348,-0.012l-7.777,0c-0.192,0 -0.348,0.156 -0.348,0.348l0,7.061c0,0.192 0.156,0.348 0.348,0.348l6.771,0l0,0Zm-5.013,-19.195c-0.192,0 -0.295,0.147 -0.228,0.327l0.65,1.788c0.067,0.182 0.276,0.329 0.468,0.329l8.035,0c0.192,0 0.287,-0.145 0.211,-0.321l-0.774,-1.802c-0.076,-0.176 -0.294,-0.321 -0.486,-0.321l-7.876,0Z" style="fill:#ffffbc;fill-rule:nonzero;"/></svg>